<svg width="592" height="185" viewBox="0 0 592 185" fill="none" xmlns="http://www.w3.org/2000/svg">
<path d="M539.174 145.804C534.495 145.804 530.751 144.401 527.944 141.593C525.24 138.785 523.888 135.042 523.888 130.363V82.4774H502.675V68.9074H523.888V43.483H539.954V68.9074H562.883V82.4774H539.954V127.555C539.954 130.675 541.41 132.234 544.321 132.234H560.387V145.804H539.174Z" fill="white"/>
<path d="M422.724 145.785V68.8882H438.478V80.4305H440.973C442.429 77.311 445.029 74.3994 448.772 71.6958C452.516 68.9922 458.079 67.6403 465.462 67.6403C471.285 67.6403 476.432 68.9402 480.904 71.5398C485.479 74.1394 489.066 77.8309 491.666 82.6142C494.266 87.2936 495.565 92.9607 495.565 99.6158V145.785H479.5V100.864C479.5 94.2086 477.836 89.3213 474.508 86.2017C471.181 82.9782 466.606 81.3664 460.782 81.3664C454.127 81.3664 448.772 83.5501 444.717 87.9175C440.765 92.2848 438.789 98.628 438.789 106.947V145.785H422.724Z" fill="white"/>
<path d="M373.126 147.976C365.327 147.976 358.516 146.364 352.693 143.14C346.869 139.813 342.294 135.185 338.967 129.258C335.743 123.227 334.131 116.26 334.131 108.357V106.486C334.131 98.4787 335.743 91.5117 338.967 85.5845C342.19 79.5534 346.661 74.926 352.381 71.7025C358.204 68.375 364.911 66.7112 372.502 66.7112C379.885 66.7112 386.332 68.375 391.843 71.7025C397.458 74.926 401.826 79.4494 404.945 85.2726C408.065 91.0957 409.624 97.9068 409.624 105.706V111.789H350.509C350.717 118.548 352.953 123.955 357.216 128.01C361.583 131.962 366.991 133.938 373.438 133.938C379.469 133.938 383.992 132.586 387.008 129.882C390.127 127.179 392.519 124.059 394.183 120.524L407.441 127.387C405.985 130.298 403.853 133.366 401.046 136.589C398.342 139.813 394.755 142.516 390.283 144.7C385.812 146.884 380.093 147.976 373.126 147.976ZM350.665 99.4666H393.247C392.831 93.6434 390.751 89.12 387.008 85.8965C383.264 82.569 378.377 80.9052 372.346 80.9052C366.315 80.9052 361.375 82.569 357.528 85.8965C353.784 89.12 351.497 93.6434 350.665 99.4666Z" fill="white"/>
<path d="M304.207 145.792V36.6074H320.273V145.792H304.207Z" fill="white"/>
<path d="M244.288 147.976C238.777 147.976 233.837 147.04 229.47 145.168C225.207 143.296 221.775 140.541 219.176 136.901C216.68 133.262 215.432 128.842 215.432 123.643C215.432 118.34 216.68 113.972 219.176 110.541C221.775 107.005 225.259 104.354 229.626 102.586C234.097 100.818 239.141 99.9345 244.756 99.9345H268.153V94.9432C268.153 90.4718 266.801 86.8844 264.097 84.1807C261.394 81.4771 257.234 80.1253 251.619 80.1253C246.108 80.1253 241.896 81.4251 238.985 84.0248C236.073 86.6244 234.149 90.0039 233.214 94.1633L218.24 89.328C219.488 85.1686 221.463 81.4251 224.167 78.0976C226.974 74.6661 230.666 71.9105 235.241 69.8308C239.817 67.7511 245.328 66.7112 251.775 66.7112C261.758 66.7112 269.608 69.2589 275.328 74.3541C281.047 79.4494 283.906 86.6764 283.906 96.035V127.699C283.906 130.818 285.362 132.378 288.274 132.378H294.825V145.792H282.815C279.175 145.792 276.211 144.856 273.924 142.984C271.636 141.113 270.492 138.565 270.492 135.341V134.874H268.153C267.321 136.433 266.073 138.253 264.409 140.333C262.745 142.412 260.302 144.232 257.078 145.792C253.855 147.248 249.591 147.976 244.288 147.976ZM246.628 134.718C253.075 134.718 258.274 132.898 262.225 129.258C266.177 125.515 268.153 120.42 268.153 113.972V112.413H245.692C241.428 112.413 237.997 113.349 235.397 115.22C232.798 116.988 231.498 119.64 231.498 123.175C231.498 126.711 232.85 129.518 235.553 131.598C238.257 133.678 241.948 134.718 246.628 134.718Z" fill="white"/>
<path d="M184.231 145.804C179.552 145.804 175.808 144.401 173.001 141.593C170.297 138.785 168.945 135.042 168.945 130.363V82.4774H147.732V68.9074H168.945V43.483H185.011V68.9074H207.94V82.4774H185.011V127.555C185.011 130.675 186.467 132.234 189.378 132.234H205.444V145.804H184.231Z" fill="white"/>
<path d="M12.978 64.4092C15.7943 67.2171 19.5492 68.6211 24.2429 68.6211L72.2477 68.6211L66.8412 53.1774H28.6237C25.7032 53.1774 24.2429 51.6174 24.2429 48.4974L24.2429 10.5032L8.91016 5.28613L8.91016 53.1774C8.91016 57.8573 10.2661 61.6012 12.978 64.4092Z" fill="white"/>
<path d="M12.978 141.622C15.7943 144.43 19.5492 145.834 24.2429 145.834H72.2477L66.8412 130.39H28.6237C25.7032 130.39 24.2429 128.83 24.2429 125.71L24.2429 87.7161L8.91016 82.499L8.91016 130.39C8.91016 135.07 10.2661 138.814 12.978 141.622Z" fill="white"/>
</svg>
